<svg xmlns="http://www.w3.org/2000/svg" viewBox="0 0 120 100" width="240" height="200">
    <g stroke-linecap="butt" stroke-width="2" stroke="none" fill="#000" transform="translate(2,2)">
        <!-- 1 .. 6 -->
        <g transform="translate(0,0)">
            <path d="M0,0h16v16h-16Z" stroke="#000" fill="#fff"/>
            <path d="M7,7h2v2h-2Z"/>
        </g>
        <g transform="translate(20,0)">
            <path d="M0,0h16v16h-16Z" stroke="#000" fill="#fff"/>
            <path d="              M11,3h2v2h-2Z
                     M3,11h2v2h-2Z"/>
        </g>
        <g transform="translate(40,0)">
            <path d="M0,0h16v16h-16Z" stroke="#000" fill="#fff"/>
            <path d="              M11,3h2v2h-2Z
                           M7,7h2v2h-2Z
                     M3,11h2v2h-2Z"/>
        </g>
        <g transform="translate(60,0)">
            <path d="M0,0h16v16h-16Z" stroke="#000" fill="#fff"/>
            <path d="M3,3h2v2h-2Z  M11,3h2v2h-2Z
                     M3,11h2v2h-2Z M11,11h2v2h-2Z"/>
        </g>
        <g transform="translate(80,0)">
            <path d="M0,0h16v16h-16Z" stroke="#000" fill="#fff"/>
            <path d="M3,3h2v2h-2Z  M11,3h2v2h-2Z
                           M7,7h2v2h-2Z
                     M3,11h2v2h-2Z M11,11h2v2h-2Z"/>
       </g>
        <g transform="translate(100,0)">
            <path d="M0,0h16v16h-16Z" stroke="#000" fill="#fff"/>
            <path d="M3,3h2v2h-2Z  M11,3h2v2h-2Z
                     M3,7h2v2h-2Z  M11,7h2v2h-2Z
                     M3,11h2v2h-2Z M11,11h2v2h-2Z"/>
        </g>
        <!-- 7 .. 9 -->
        <g transform="translate(0,20)">
            <path d="M0,0h16v16h-16Z" stroke="#000" fill="#fff"/>
            <path d="M3,3h2v2h-2Z               M11,3h2v2h-2Z
                     M3,7h2v2h-2Z  M7,7h2v2h-2Z M11,7h2v2h-2Z
                     M3,11h2v2h-2Z              M11,11h2v2h-2Z"/>
        </g>
        <g transform="translate(20,20)">
            <path d="M0,0h16v16h-16Z" stroke="#000" fill="#fff"/>
            <path d="M3,3h2v2h-2Z  M7,3h2v2h-2Z  M11,3h2v2h-2Z
                     M3,7h2v2h-2Z                M11,7h2v2h-2Z
                     M3,11h2v2h-2Z M7,11h2v2h-2Z M11,11h2v2h-2Z"/>
        </g>
        <g transform="translate(40,20)">
            <path d="M0,0h16v16h-16Z" stroke="#000" fill="#fff"/>
            <path d="M3,3h2v2h-2Z  M7,3h2v2h-2Z  M11,3h2v2h-2Z
                     M3,7h2v2h-2Z  M7,7h2v2h-2Z  M11,7h2v2h-2Z
                     M3,11h2v2h-2Z M7,11h2v2h-2Z M11,11h2v2h-2Z"/>
        </g>
    </g>
    <g stroke-linecap="square" stroke-width="2" stroke="#000" fill="#fff" transform="translate(2,2)">
        <!-- 0 .. 2 -->
        <g transform="translate(60,20)">
            <path d="M0,0h16v16h-16Z" stroke="#fff" fill="#fff"/>
            <path d="M6,4h4v8h-4v-8"/>
        </g>
        <g transform="translate(80,20)">
            <path d="M0,0h16v16h-16Z" stroke="#fff" fill="#fff"/>
            <path d="M8,4v8"/>
        </g>
        <g transform="translate(100,20)">
            <path d="M0,0h16v16h-16Z" stroke="#fff" fill="#fff"/>
            <path d="M6,4h4v4h-4v4h4"/>
        </g>
        <!-- 3 .. 8 -->
        <g transform="translate(0,40)">
            <path d="M0,0h16v16h-16Z" stroke="#fff" fill="#fff"/>
            <path d="M6,4h4v4M6,8h4v4h-4"/>
        </g>
        <g transform="translate(20,40)">
            <path d="M0,0h16v16h-16Z" stroke="#fff" fill="#fff"/>
            <path d="M6,4v4h4M10,4v8"/>
        </g>
        <g transform="translate(40,40)">
            <path d="M0,0h16v16h-16Z" stroke="#fff" fill="#fff"/>
            <path d="M10,4h-4v4h4v4h-4"/>
        </g>
        <g transform="translate(60,40)">
            <path d="M0,0h16v16h-16Z" stroke="#fff" fill="#fff"/>
            <path d="M10,4h-4v8h4v-4h-4"/>
        </g>
        <g transform="translate(80,40)">
            <path d="M0,0h16v16h-16Z" stroke="#fff" fill="#fff"/>
            <path d="M6,6v-2h4v8"/>
        </g>
        <g transform="translate(100,40)">
            <path d="M0,0h16v16h-16Z" stroke="#fff" fill="#fff"/>
            <path d="M10,4h-4v4h4v4h-4v-4h4v-4"/>
        </g>
        <!-- 9 .. 14 -->
        <g transform="translate(0,60)">
            <path d="M0,0h16v16h-16Z" stroke="#fff" fill="#fff"/>
            <path d="M10,8v-4h-4v4h4v4h-4"/>
        </g>
        <g transform="translate(20,60)">
            <path d="M0,0h16v16h-16Z" stroke="#fff" fill="#fff"/>
            <path d="M4,4v8M8,4h4v8h-4v-8"/>
        </g>
        <g transform="translate(40,60)">
            <path d="M0,0h16v16h-16Z" stroke="#fff" fill="#fff"/>
            <path d="M4,4v8M12,4v8"/>
        </g>
        <g transform="translate(60,60)">
            <path d="M0,0h16v16h-16Z" stroke="#fff" fill="#fff"/>
            <path d="M4,4v8M8,4h4v4h-4v4h4"/>
        </g>
        <g transform="translate(80,60)">
            <path d="M0,0h16v16h-16Z" stroke="#fff" fill="#fff"/>
            <path d="M4,4v8M8,4h4v4M8,8h4v4h-4"/>
        </g>
        <g transform="translate(100,60)">
            <path d="M0,0h16v16h-16Z" stroke="#fff" fill="#fff"/>
            <path d="M4,4v8M8,4v4h4M12,4v8"/>
        </g>
        <!-- 15 .. 20 -->
        <g transform="translate(0,80)">
            <path d="M0,0h16v16h-16Z" stroke="#fff" fill="#fff"/>
            <path d="M4,4v8M12,4h-4v4h4v4h-4"/>
        </g>
        <g transform="translate(20,80)">
            <path d="M0,0h16v16h-16Z" stroke="#fff" fill="#fff"/>
            <path d="M4,4v8M12,4h-4v8h4v-4h-4"/>
        </g>
        <g transform="translate(40,80)">
            <path d="M0,0h16v16h-16Z" stroke="#fff" fill="#fff"/>
            <path d="M4,4v8M8,6v-2h4v8"/>
        </g>
        <g transform="translate(60,80)">
            <path d="M0,0h16v16h-16Z" stroke="#fff" fill="#fff"/>
            <path d="M4,4v8M12,4h-4v4h4v4h-4v-4h4v-4"/>
        </g>
        <g transform="translate(80,80)">
            <path d="M0,0h16v16h-16Z" stroke="#fff" fill="#fff"/>
            <path d="M4,4v8M12,8v-4h-4v4h4v4h-4"/>
        </g>
        <g transform="translate(100,80)">
            <path d="M0,0h16v16h-16Z" stroke="#fff" fill="#fff"/>
            <!--path d="M2.5,4h4v4h-4v4h4M9.5,4h4v8h-4v-8"/-->
            <path d="M2,4h4v4h-4v4h4M10,4h4v8h-4v-8"/>
        </g>
    </g>
</svg>

