<svg xmlns="http://www.w3.org/2000/svg" viewBox="0 0 100 80" width="200" height="160">
    <g stroke-linecap="butt" stroke-width="2" stroke="#000" fill="#fff" transform="translate(2,2)">
        <!-- 1 .. 10 -->
        <g transform="translate(0,0)">
            <path d="M0,0h16v16h-16Z"/>
            <path d="M7,7h2v2h-2Z" stroke="none" fill="#000"/>
        </g>
        <g transform="translate(20,0)">
            <path d="M0,0h16v16h-16Z"/>
            <path d="        M11,3h2v2h-2Z
                     M3,11h2v2h-2Z" stroke="none" fill="#000"/>
        </g>
        <g transform="translate(40,0)">
            <path d="M0,0h16v16h-16Z"/>
            <path d="        M11,3h2v2h-2Z
                         M7,7h2v2h-2Z
                     M3,11h2v2h-2Z" stroke="none" fill="#000"/>
        </g>
        <g transform="translate(60,0)">
            <path d="M0,0h16v16h-16Z"/>
            <path d="M3,3h2v2h-2Z  M11,3h2v2h-2Z
                     M3,11h2v2h-2Z M11,11h2v2h-2Z" stroke="none" fill="#000"/>
        </g>
        <g transform="translate(80,0)">
            <path d="M0,0h16v16h-16Z"/>
            <path d="M3,3h2v2h-2Z  M11,3h2v2h-2Z
                         M7,7h2v2h-2Z
                     M3,11h2v2h-2Z M11,11h2v2h-2Z" stroke="none" fill="#000"/>
        </g>
        <g transform="translate(0,20)">
            <path d="M0,0h16v16h-16Z"/>
            <path d="M3,3h2v2h-2Z  M11,3h2v2h-2Z
                     M3,7h2v2h-2Z  M11,7h2v2h-2Z
                     M3,11h2v2h-2Z M11,11h2v2h-2Z" stroke="none" fill="#000"/>
        </g>
        <g transform="translate(20,20)">
            <path d="M0,0h16v16h-16Z"/>
            <path d="M3,3h2v2h-2Z         M11,3h2v2h-2Z
                     M3,7h2v2h-2Z  M7,7h2v2h-2Z M11,7h2v2h-2Z
                     M3,11h2v2h-2Z        M11,11h2v2h-2Z" stroke="none" fill="#000"/>
        </g>
        <g transform="translate(40,20)">
            <path d="M0,0h16v16h-16Z"/>
            <path d="M3,3h2v2h-2Z  M7,3h2v2h-2Z  M11,3h2v2h-2Z
                     M3,7h2v2h-2Z          M11,7h2v2h-2Z
                     M3,11h2v2h-2Z M7,11h2v2h-2Z M11,11h2v2h-2Z" stroke="none" fill="#000"/>
        </g>
        <g transform="translate(60,20)">
            <path d="M0,0h16v16h-16Z"/>
            <path d="M3,3h2v2h-2Z  M7,3h2v2h-2Z  M11,3h2v2h-2Z
                     M3,7h2v2h-2Z  M7,7h2v2h-2Z  M11,7h2v2h-2Z
                     M3,11h2v2h-2Z M7,11h2v2h-2Z M11,11h2v2h-2Z" stroke="none" fill="#000"/>
        </g>
        <g transform="translate(80,20)">
            <path d="M0,0h16v16h-16Z"/>
            <path d="M3,3h2v2h-2Z    M7,3h2v2h-2Z     M11,3h2v2h-2Z
                     M3,7h2v2h-2Z M8,6h2v2h-2Z M6,8h2v2h-2Z M11,7h2v2h-2Z
                     M3,11h2v2h-2Z   M7,11h2v2h-2Z    M11,11h2v2h-2Z" stroke="none" fill="#000"/>
        </g>
        <!-- 11 .. 20 -->
        <g transform="translate(0,40)">
            <path d="M0,0h16v16h-16Z"/>
            <path d="M4,3v1  M12,3v1
                     M4,5v1  M12,5v1
                     M4,10v1 M12,10v1
                     M4,12v1 M12,12v1"/>
            <path d="M3,7h2v2h-2Z  M7,7h2v2h-2Z  M11,7h2v2h-2Z" stroke="none" fill="#000"/>
        </g>
        <g transform="translate(20,40)">
            <path d="M0,0h16v16h-16Z"/>
            <path d="M4,3v1  M12,3v1
                     M4,5v1  M12,5v1
                     M4,10v1 M12,10v1
                     M4,12v1 M12,12v1"/>
            <path d="M7,3h2v2h-2Z  M3,7h2v2h-2Z  M11,7h2v2h-2Z M7,11h2v2h-2Z" stroke="none" fill="#000"/>
        </g>
        <g transform="translate(40,40)">
            <path d="M0,0h16v16h-16Z"/>
            <path d="M4,3v1  M12,3v1
                     M4,5v1  M12,5v1
                     M4,10v1 M12,10v1
                     M4,12v1 M12,12v1"/>
            <path d="M7,3h2v2h-2Z  M3,7h2v2h-2Z  M7,7h2v2h-2Z M11,7h2v2h-2Z M7,11h2v2h-2Z" stroke="none" fill="#000"/>
        </g>
        <g transform="translate(60,40)">
            <path d="M0,0h16v16h-16Z"/>
            <path d="M6,4h1  M9,4h1
                     M4,3v1  M12,3v1
                     M4,5v1  M12,5v1
                     M4,10v1 M12,10v1
                     M4,12v1 M12,12v1
                     M6,12h1 M9,12h1"/>
            <path d="M3,7h2v2h-2Z  M11,7h2v2h-2Z" stroke="none" fill="#000"/>
        </g>
        <g transform="translate(80,40)">
            <path d="M0,0h16v16h-16Z"/>
            <path d="M6,4h1  M9,4h1
                     M4,3v1  M12,3v1
                     M4,5v1  M12,5v1
                     M4,10v1 M12,10v1
                     M4,12v1 M12,12v1
                     M6,12h1 M9,12h1"/>
            <path d="M3,7h2v2h-2Z  M7,7h2v2h-2Z  M11,7h2v2h-2Z" stroke="none" fill="#000"/>
        </g>
        <g transform="translate(0,60)">
            <path d="M0,0h16v16h-16Z"/>
            <path d="M6,4h1  M9,4h1
                     M4,3v1  M12,3v1
                     M4,5v1  M12,5v1
                     M6,8h1  M9,8h1
                     M4,10v1 M12,10v1
                     M4,12v1 M12,12v1
                     M6,12h1 M9,12h1"/>
            <path d="M3,7h2v2h-2Z  M11,7h2v2h-2Z" stroke="none" fill="#000"/>
        </g>
        <g transform="translate(20,60)">
            <path d="M0,0h16v16h-16Z"/>
            <path d="M6,4h1  M9,4h1
                     M4,3v1  M12,3v1
                     M4,5v1  M12,5v1
                     M3,8h1  M5,8h1  M10,8h1   M12,8h1
                     M4,10v1 M12,10v1
                     M4,12v1 M12,12v1
                     M6,12h1 M9,12h1"/>
            <path d="M7,7h2v2h-2Z" stroke="none" fill="#000"/>
        </g>
        <g transform="translate(40,60)">
            <path d="M0,0h16v16h-16Z"/>
            <path d="M6,4h1  M9,4h1
                     M4,3v1  M12,3v1
                     M4,5v1  M12,5v1
                     M8,6v1
                     M3,8h1  M5,8h1  M10,8h1   M12,8h1
                     M8,9v1
                     M4,10v1 M12,10v1
                     M4,12v1 M12,12v1
                     M6,12h1 M9,12h1"/>
        </g>
        <g transform="translate(60,60)">
            <path d="M0,0h16v16h-16Z"/>
            <path d="M9,4h1
                     M4,3v1  M7,3v1  M12,3v1
                     M4,5v1  M7,5v1  M12,5v1
                     M3,8h1  M5,8h1  M10,8h1   M12,8h1
                     M4,10v1 M9,10v1  M12,10v1
                     M4,12v1 M9,12v1 M12,12v1
                     M6,12h1"/>
            <path d="M7,7h2v2h-2Z" stroke="none" fill="#000"/>
        </g>>
        <g transform="translate(80,60)">
            <path d="M0,0h16v16h-16Z"/>
            <path d="M9,4h1
                     M4,3v1 M7,3v1 M12,3v1
                     M12,6h1
                     M4,5v1 M7,5v1 M10,6v1
                     M4,7v1 M7,7v1
                     M9,8v1 M12,8v1
                     M6,9v1 M9,10v1 M12,10v1
                     M3,10h1
                     M4,12v1 M9,12v1 M12,12v1
                     M6,12h1"/>
        </g>
    </g>
</svg>

