<!--
    brew install inkscape
    /Applications/Inkscape.app/Contents/MacOS/inkscape -p logo.svg -o logo.png
 !-->
<svg xmlns="http://www.w3.org/2000/svg" viewBox="0 0 120 80" width="240" height="160">
    <!--rect fill="#eee" x="0" y="0" width="100%" height="100%"/!-->

    <!-- 1 .. 6 -->
    <g stroke-linecap="square" stroke-width="2" stroke="#000" fill="none" transform="translate(2,2)">
        <g transform="translate(0,0)">
            <path d="M0,0h16v16h-16Z" stroke="#fff" fill="#fff"/>
            <path d="M8,4v8"/>
        </g>
        <g transform="translate(20,0)">
            <path d="M0,0h16v16h-16Z" stroke="#fff" fill="#fff"/>
            <path d="M6,4h4v4h-4v4h4"/>
        </g>
        <g transform="translate(40,0)">
            <path d="M0,0h16v16h-16Z" stroke="#fff" fill="#fff"/>
            <path d="M6,4h4v4M6,8h4v4h-4"/>
        </g>
        <g transform="translate(60,0)">
            <path d="M0,0h16v16h-16Z" stroke="#fff" fill="#fff"/>
             <path d="M6,4v4h4M10,4v8"/>
        </g>
        <g transform="translate(80,0)">
            <path d="M0,0h16v16h-16Z" stroke="#fff" fill="#fff"/>
            <path d="M10,4h-4v4h4v4h-4"/>
        </g>
        <g transform="translate(100,0)">
            <path d="M0,0h16v16h-16Z" stroke="#fff" fill="#fff"/>
            <path d="M10,4h-4v8h4v-4h-4"/>
        </g>
    </g>

    <!-- 7 .. 13 -->
    <g stroke-linecap="square" stroke-width="2" stroke="#000" fill="none" transform="translate(2,22)">
        <g transform="translate(0,0)">
            <path d="M0,0h16v16h-16Z" stroke="#fff" fill="#fff"/>
            <path d="M6,6v-2h4v8"/>
        </g>
        <g transform="translate(20,0)">
            <path d="M0,0h16v16h-16Z" stroke="#fff" fill="#fff"/>
            <path d="M10,4h-4v4h4v4h-4v-4h4v-4"/>
        </g>
        <g transform="translate(40,0)">
            <path d="M0,0h16v16h-16Z" stroke="#fff" fill="#fff"/>
            <path d="M10,8v-4h-4v4h4v4h-4"/>
        </g>
        <g transform="translate(60,0)">
            <path d="M0,0h16v16h-16Z" stroke="#fff" fill="#fff"/>
            <path d="M4,4v8M8,4h4v8h-4v-8"/>
        </g>
        <g transform="translate(80,0)">
            <path d="M0,0h16v16h-16Z" stroke="#fff" fill="#fff"/>
            <path d="M4,4v8M12,4v8"/>
        </g>
        <g transform="translate(100,0)">
            <path d="M0,0h16v16h-16Z" stroke="#fff" fill="#fff"/>
            <path d="M4,4v8M8,4h4v4h-4v4h4"/>
        </g>
    </g>

    <!-- 14 .. 18 -->
    <g stroke-linecap="square" stroke-width="2" stroke="#000" fill="none" transform="translate(2,42)">
        <g transform="translate(0,0)">
            <path d="M0,0h16v16h-16Z" stroke="#fff" fill="#fff"/>
            <path d="M4,4v8M8,4h4v4M8,8h4v4h-4"/>
        </g>
        <g transform="translate(20,0)">
            <path d="M0,0h16v16h-16Z" stroke="#fff" fill="#fff"/>
            <path d="M4,4v8M8,4v4h4M12,4v8"/>
        </g>
        <g transform="translate(40,0)">
            <path d="M0,0h16v16h-16Z" stroke="#fff" fill="#fff"/>
            <path d="M4,4v8M12,4h-4v4h4v4h-4"/>
        </g>
        <g transform="translate(60,0)">
            <path d="M0,0h16v16h-16Z" stroke="#fff" fill="#fff"/>
            <path d="M4,4v8M12,4h-4v8h4v-4h-4"/>
        </g>
        <g transform="translate(80,0)">
            <path d="M0,0h16v16h-16Z" stroke="#fff" fill="#fff"/>
            <path d="M4,4v8M8,6v-2h4v8"/>
        </g>
        <g transform="translate(100,0)">
            <path d="M0,0h16v16h-16Z" stroke="#fff" fill="#fff"/>
            <path d="M4,4v8M12,4h-4v4h4v4h-4v-4h4v-4"/>
        </g>
    </g>

    <!-- 19 20 21 0 + - -->
    <g stroke-linecap="square" stroke-width="2" stroke="#000" fill="none" transform="translate(2,62)">
        <g transform="translate(0,0)">
            <path d="M0,0h16v16h-16Z" stroke="#fff" fill="#fff"/>
            <path d="M4,4v8M12,8v-4h-4v4h4v4h-4"/>
        </g>
        <g transform="translate(20,0)">
            <path d="M0,0h16v16h-16Z" stroke="#fff" fill="#fff"/>
            <path d="M2,4h4v4h-4v4h4M10,4h4v8h-4v-8"/>
        </g>
        <g transform="translate(40,0)">
            <path d="M0,0h16v16h-16Z" stroke="#fff" fill="#fff"/>
            <path d="M2,4h4v4h-4v4h4M12,4v8"/>
        </g>
        <g transform="translate(60,0)">
            <path d="M0,0h16v16h-16Z" stroke="#fff" fill="#fff"/>
            <path d="M6,4h4v8h-4v-8"/>
        </g>
        <g transform="translate(80,0)">
            <!--path d="M0,0h16v16h-16Z" stroke="#fff" fill="#fff"/!-->
            <path d="M6,8h4 M8,6v4"/>
        </g>
        <g transform="translate(100,0)">
            <!--path d="M0,0h16v16h-16Z" stroke="#fff" fill="#fff"/!-->
            <path d="M6,8h4"/>
        </g>
    </g>
</svg>

