<!-- # How to convert.
    brew install inkscape
    /Applications/Inkscape.app/Contents/MacOS/inkscape -p resource.svg -o resource.png
 !-->
<svg xmlns="http://www.w3.org/2000/svg" viewBox="0 0 120 120" width="240" height="240">
    <!--rect fill="#eee" x="0" y="0" width="100%" height="100%"/!-->

    <!-- Dice 1 .. 6 -->
    <g stroke-linecap="butt" stroke-width="2" stroke="none" fill="#000" transform="translate(2,2)">
        <g transform="translate(0,0)">
            <path d="M0,0h16v16h-16Z" stroke="#000" fill="#fff"/>
            <path d="M7,7h2v2h-2Z"/>
        </g>
        <g transform="translate(20,0)">
            <path d="M0,0h16v16h-16Z" stroke="#000" fill="#fff"/>
            <path d="              M11,3h2v2h-2Z
                     M3,11h2v2h-2Z"/>
        </g>
        <g transform="translate(40,0)">
            <path d="M0,0h16v16h-16Z" stroke="#000" fill="#fff"/>
            <path d="              M11,3h2v2h-2Z
                           M7,7h2v2h-2Z
                     M3,11h2v2h-2Z"/>
        </g>
        <g transform="translate(60,0)">
            <path d="M0,0h16v16h-16Z" stroke="#000" fill="#fff"/>
            <path d="M3,3h2v2h-2Z  M11,3h2v2h-2Z
                     M3,11h2v2h-2Z M11,11h2v2h-2Z"/>
        </g>
        <g transform="translate(80,0)">
            <path d="M0,0h16v16h-16Z" stroke="#000" fill="#fff"/>
            <path d="M3,3h2v2h-2Z  M11,3h2v2h-2Z
                           M7,7h2v2h-2Z
                     M3,11h2v2h-2Z M11,11h2v2h-2Z"/>
        </g>
        <g transform="translate(100,0)">
            <path d="M0,0h16v16h-16Z" stroke="#000" fill="#fff"/>
            <path d="M3,3h2v2h-2Z  M11,3h2v2h-2Z
                     M3,7h2v2h-2Z  M11,7h2v2h-2Z
                     M3,11h2v2h-2Z M11,11h2v2h-2Z"/>
        </g>
    </g>

    <!-- Dice 7 8 9 -->
    <g stroke-linecap="butt" stroke-width="2" stroke="none" fill="#000" transform="translate(2,22)">
        <g transform="translate(0,0)">
            <path d="M0,0h16v16h-16Z" stroke="#000" fill="#fff"/>
            <path d="M3,3h2v2h-2Z               M11,3h2v2h-2Z
                     M3,7h2v2h-2Z  M7,7h2v2h-2Z M11,7h2v2h-2Z
                     M3,11h2v2h-2Z              M11,11h2v2h-2Z"/>
        </g>
        <g transform="translate(20,0)">
            <path d="M0,0h16v16h-16Z" stroke="#000" fill="#fff"/>
            <path d="M3,3h2v2h-2Z  M7,3h2v2h-2Z  M11,3h2v2h-2Z
                     M3,7h2v2h-2Z                M11,7h2v2h-2Z
                     M3,11h2v2h-2Z M7,11h2v2h-2Z M11,11h2v2h-2Z"/>
        </g>
        <g transform="translate(40,0)">
            <path d="M0,0h16v16h-16Z" stroke="#000" fill="#fff"/>
            <path d="M3,3h2v2h-2Z  M7,3h2v2h-2Z  M11,3h2v2h-2Z
                     M3,7h2v2h-2Z  M7,7h2v2h-2Z  M11,7h2v2h-2Z
                     M3,11h2v2h-2Z M7,11h2v2h-2Z M11,11h2v2h-2Z"/>
        </g>
    </g>

    <!-- x -->
    <g stroke-linecap="butt" stroke-width="2" stroke="none" fill="#000" transform="translate(2,22)">
        <g transform="translate(60,0)">
            <path d="M5,5h2v2h-2Z                M9,5h2v2h-2Z
                                   M7,7h2v2h-2Z
                     M5,9h2v2h-2Z                M9,9h2v2h-2Z"/>
        </g>
    </g>

    <!-- o + -->
    <g stroke-linecap="square" stroke-width="2" stroke="#000" fill="none" transform="translate(2,22)">
        <g transform="translate(80,0)">
            <!--path d="M0,0h16v16h-16Z" stroke="#fff" fill="#fff"/!-->
            <path d="M6,6h4v4h-4Z"/>
        </g>
        <g transform="translate(100,0)">
            <!--path d="M0,0h16v16h-16Z" stroke="#fff" fill="#fff"/!-->
            <path d="M6,8h4 M8,6v4"/>
        </g>
    </g>

    <!-- - 20 .. 16 -->
    <g stroke-linecap="square" stroke-width="2" stroke="#000" fill="none" transform="translate(2,42)">
        <g transform="translate(0,0)">
            <!--path d="M0,0h16v16h-16Z" stroke="#fff" fill="#fff"/!-->
            <path d="M6,8h4"/>
        </g>
        <g transform="translate(20,0)">
            <path d="M0,0h16v16h-16Z" stroke="#fff" fill="#fff"/>
            <!--path d="M2.5,4h4v4h-4v4h4M9.5,4h4v8h-4v-8"/-->
            <path d="M2,4h4v4h-4v4h4M10,4h4v8h-4v-8"/>
        </g>
        <g transform="translate(40,0)">
            <path d="M0,0h16v16h-16Z" stroke="#fff" fill="#fff"/>
            <path d="M4,4v8M12,8v-4h-4v4h4v4h-4"/>
        </g>
        <g transform="translate(60,0)">
            <path d="M0,0h16v16h-16Z" stroke="#fff" fill="#fff"/>
            <path d="M4,4v8M12,4h-4v4h4v4h-4v-4h4v-4"/>
        </g>
        <g transform="translate(80,0)">
            <path d="M0,0h16v16h-16Z" stroke="#fff" fill="#fff"/>
            <path d="M4,4v8M8,6v-2h4v8"/>
        </g>
        <g transform="translate(100,0)">
            <path d="M0,0h16v16h-16Z" stroke="#fff" fill="#fff"/>
            <path d="M4,4v8M12,4h-4v8h4v-4h-4"/>
        </g>
    </g>

    <!-- 15 .. 7 -->
    <g stroke-linecap="square" stroke-width="2" stroke="#000" fill="none" transform="translate(2,62)">
        <g transform="translate(0,0)">
            <path d="M0,0h16v16h-16Z" stroke="#fff" fill="#fff"/>
            <path d="M4,4v8M12,4h-4v4h4v4h-4"/>
        </g>
        <g transform="translate(20,0)">
            <path d="M0,0h16v16h-16Z" stroke="#fff" fill="#fff"/>
            <path d="M4,4v8M8,4v4h4M12,4v8"/>
        </g>
        <g transform="translate(40,0)">
            <path d="M0,0h16v16h-16Z" stroke="#fff" fill="#fff"/>
            <path d="M4,4v8M8,4h4v4M8,8h4v4h-4"/>
        </g>
        <g transform="translate(60,0)">
            <path d="M0,0h16v16h-16Z" stroke="#fff" fill="#fff"/>
            <path d="M4,4v8M8,4h4v4h-4v4h4"/>
        </g>
        <g transform="translate(80,0)">
            <path d="M0,0h16v16h-16Z" stroke="#fff" fill="#fff"/>
            <path d="M4,4v8M12,4v8"/>
        </g>
        <g transform="translate(100,0)">
            <path d="M0,0h16v16h-16Z" stroke="#fff" fill="#fff"/>
            <path d="M4,4v8M8,4h4v8h-4v-8"/>
        </g>
    </g>

    <!-- 7 .. 4 -->
    <g stroke-linecap="square" stroke-width="2" stroke="#000" fill="none" transform="translate(2,82)">
        <g transform="translate(0,0)">
            <path d="M0,0h16v16h-16Z" stroke="#fff" fill="#fff"/>
            <path d="M10,8v-4h-4v4h4v4h-4"/>
        </g>
        <g transform="translate(20,0)">
            <path d="M0,0h16v16h-16Z" stroke="#fff" fill="#fff"/>
            <path d="M10,4h-4v4h4v4h-4v-4h4v-4"/>
        </g>
        <g transform="translate(40,0)">
            <path d="M0,0h16v16h-16Z" stroke="#fff" fill="#fff"/>
            <path d="M6,6v-2h4v8"/>
        </g>
        <g transform="translate(60,0)">
            <path d="M0,0h16v16h-16Z" stroke="#fff" fill="#fff"/>
            <path d="M10,4h-4v8h4v-4h-4"/>
        </g>
        <g transform="translate(80,0)">
            <path d="M0,0h16v16h-16Z" stroke="#fff" fill="#fff"/>
            <path d="M10,4h-4v4h4v4h-4"/>
        </g>
        <g transform="translate(100,0)">
            <path d="M0,0h16v16h-16Z" stroke="#fff" fill="#fff"/>
             <path d="M6,4v4h4M10,4v8"/>
        </g>
    </g>

    <!-- 3 .. 0 -->
    <g stroke-linecap="square" stroke-width="2" stroke="#000" fill="none" transform="translate(2,102)">
        <g transform="translate(0,0)">
            <path d="M0,0h16v16h-16Z" stroke="#fff" fill="#fff"/>
            <path d="M6,4h4v4M6,8h4v4h-4"/>
        </g>
        <g transform="translate(20,0)">
            <path d="M0,0h16v16h-16Z" stroke="#fff" fill="#fff"/>
            <path d="M6,4h4v4h-4v4h4"/>
        </g>
        <g transform="translate(40,0)">
            <path d="M0,0h16v16h-16Z" stroke="#fff" fill="#fff"/>
            <path d="M8,4v8"/>
        </g>
        <g transform="translate(60,0)">
            <path d="M0,0h16v16h-16Z" stroke="#fff" fill="#fff"/>
            <path d="M6,4h4v8h-4v-8"/>
        </g>
    </g>

    <g stroke-linecap="butt" stroke-width="2" stroke="none" fill="#fff" transform="translate(2,102)">
        <!-- Blank -->
        <g transform="translate(80,0)">
            <!--path d="M0,0h16v16h-16Z" stroke="#000" fill="#fff"/!-->
            <path d="M-1,-1h2v2h-2Z M3,-1h2v2h-2Z M7,-1h2v2h-2Z M11,-1h2v2h-2Z M15,-1h2v2h-2Z
                     M-1,3h2v2h-2Z                                             M15,3h2v2h-2Z
                     M-1,7h2v2h-2Z                                             M15,7h2v2h-2Z
                     M-1,11h2v2h-2Z                                            M15,11h2v2h-2Z
                     M-1,15h2v2h-2Z M3,15h2v2h-2Z M7,15h2v2h-2Z M11,15h2v2h-2Z M15,15h2v2h-2Z"
                     stroke-linecap="butt" stroke-width="2" stroke="none" fill="#888"/>
        </g>
        <!-- Back -->
        <g transform="translate(100,0)">
            <path d="M0,0h16v16h-16Z" stroke="#888" fill="#888"/>
            <path d="M1,1h2v2h-2Z  M5,1h2v2h-2Z  M9,1h2v2h-2Z  M13,1h2v2h-2Z
                     M1,5h2v2h-2Z  M5,5h2v2h-2Z  M9,5h2v2h-2Z  M13,5h2v2h-2Z
                     M1,9h2v2h-2Z  M5,9h2v2h-2Z  M9,9h2v2h-2Z  M13,9h2v2h-2Z
                     M1,13h2v2h-2Z M5,13h2v2h-2Z M9,13h2v2h-2Z M13,13h2v2h-2Z"
                     stroke-linecap="butt" stroke-width="2" stroke="none" fill="#fff"/>
        </g>

    </g>
</svg>

