<svg xmlns="http://www.w3.org/2000/svg" viewBox="0 0 120 100" width="240" height="200">
    <g stroke-linecap="butt" stroke-width="2" stroke="none" fill="#fff" transform="translate(2,2)">
        <!-- BACK SPADE HEART DIAM CLUB -->
        <g transform="translate(0,0)">
            <path d="M2,0h12v16h-12Z" stroke="#888" fill="#888"/>
            <path d="M3,1h2v2h-2ZM7,1h2v2h-2ZM11,1h2v2h-2Z M5,3h2v2h-2ZM9,3h2v2h-2Z M3,5h2v2h-2ZM7,5h2v2h-2ZM11,5h2v2h-2Z M5,7h2v2h-2ZM9,7h2v2h-2Z M3,9h2v2h-2ZM7,9h2v2h-2ZM11,9h2v2h-2Z M5,11h2v2h-2ZM9,11h2v2h-2Z M3,13h2v2h-2ZM7,13h2v2h-2ZM11,13h2v2h-2Z"/>
        </g>
        <g transform="translate(20,0)">
            <path d="M2,0h12v16h-12Z" stroke="#88f" fill="#fff"/>
            <path d="M7,3h2v2h-2Z M5,5h6v2h-6 M3,7h10v4h-10Z M5,11h6v2h-6" fill="#88f"/>
        </g>
        <g transform="translate(40,0)">
            <path d="M2,0h12v16h-12Z" stroke="#f88" fill="#fff"/>
            <path d="M5,3h2v2h-2ZM9,3h2v2h-2Z M3,5h10v4h-10Z M5,9h6v2h-6 M7,11h2v2h-2" fill="#f88"/>
        </g>
        <g transform="translate(60,0)">
            <path d="M2,0h12v16h-12Z" stroke="#dd0" fill="#fff"/>
            <path d="M7,3h2v2h-2 M5,5h6v2h-6 M3,7h10v2h-10Z M5,9h6v2h-6 M7,11h2v2h-2" fill="#dd0"/>
        </g>
        <g transform="translate(80,0)">
            <path d="M2,0h12v16h-12Z" stroke="#6d6" fill="#fff"/>
            <path d="M5,3h6v4h-6 M3,7h10v4h-10Z M7,11h2v2h-2" fill="#6d6"/>
       </g>
        <!-- BLANK -->
        <!--g transform="translate(100,0)">
            <path d="M2,0h12v16h-12Z" stroke="#fff" fill="#fff"/>
        </g-->
    </g>
    <g stroke-linecap="square" stroke-width="2" stroke="#000" fill="none" transform="translate(2,2)">
        <!-- A -->
        <g transform="translate(100,0)">
            <path d="M4,8v4 M6,10h4 M12,8v4"/>
            <path d="M5,5h2v2h-2 M7,3h2v2h-2 M9,5h2v2h-2" stroke-linecap="butt" stroke-width="2" stroke="none" fill="#000"/>
        </g>
        <!-- J Q K -->
        <g transform="translate(0,20)">
            <!--path d="M8,4h2 M10,4v8h-4v-2"/-->
            <path d="M6,4h6 M10,4v8h-6v-2"/>
        </g>
        <g transform="translate(20,20)">
            <!--path d="M10,8v-4h-4v4 M6,10h2v2h2"/-->
            <path d="M12,8v-4h-8v8h4"/>
            <path d="M7,7h2v2h-2 M9,9h2v2h-2 M11,11h2v2h-2" stroke-linecap="butt" stroke-width="2" stroke="none" fill="#000"/>
        </g>
        <g transform="translate(40,20)">
            <!--path d="M6,4v8 M6,8h2 M10,6v-2 M10,10v2"/-->
            <path d="M4,4v8 M6,8h2"/>
            <path d="M9,9h2v2h-2 M9,5h2v2h-2 M11,11h2v2h-2 M11,3h2v2h-2" stroke-linecap="butt" stroke-width="2" stroke="none" fill="#000"/>
        </g>
        <!-- 0 1 2 -->
        <g transform="translate(60,20)">
            <path d="M6,4h4v8h-4v-8"/>
        </g>
        <g transform="translate(80,20)">
            <path d="M8,4v8"/>
        </g>
        <g transform="translate(100,20)">
            <path d="M6,4h4v4h-4v4h4"/>
        </g>
        <!-- 3 .. 8 -->
        <g transform="translate(0,40)">
            <path d="M6,4h4v4M6,8h4v4h-4"/>
        </g>
        <g transform="translate(20,40)">
            <path d="M6,4v4h4M10,4v8"/>
        </g>
        <g transform="translate(40,40)">
            <path d="M10,4h-4v4h4v4h-4"/>
        </g>
        <g transform="translate(60,40)">
            <path d="M10,4h-4v8h4v-4h-4"/>
        </g>
        <g transform="translate(80,40)">
            <path d="M6,6v-2h4v8"/>
        </g>
        <g transform="translate(100,40)">
            <path d="M10,4h-4v4h4v4h-4v-4h4v-4"/>
        </g>
        <!-- 9 .. 14 -->
        <g transform="translate(0,60)">
            <path d="M10,8v-4h-4v4h4v4h-4"/>
        </g>
        <g transform="translate(20,60)">
            <path d="M4,4v8M8,4h4v8h-4v-8"/>
        </g>
        <g transform="translate(40,60)">
            <path d="M4,4v8M12,4v8"/>
        </g>
        <g transform="translate(60,60)">
            <path d="M4,4v8M8,4h4v4h-4v4h4"/>
        </g>
        <g transform="translate(80,60)">
            <path d="M4,4v8M8,4h4v4M8,8h4v4h-4"/>
        </g>
        <g transform="translate(100,60)">
            <path d="M4,4v8M8,4v4h4M12,4v8"/>
        </g>
        <!-- 15 .. 20 -->
        <g transform="translate(0,80)">
            <path d="M4,4v8M12,4h-4v4h4v4h-4"/>
        </g>
        <g transform="translate(20,80)">
            <path d="M4,4v8M12,4h-4v8h4v-4h-4"/>
        </g>
        <g transform="translate(40,80)">
            <path d="M4,4v8M8,6v-2h4v8"/>
        </g>
        <g transform="translate(60,80)">
            <path d="M4,4v8M12,4h-4v4h4v4h-4v-4h4v-4"/>
        </g>
        <g transform="translate(80,80)">
            <path d="M4,4v8M12,8v-4h-4v4h4v4h-4"/>
        </g>
        <g transform="translate(100,80)">
            <!--path d="M2.5,4h4v4h-4v4h4M9.5,4h4v8h-4v-8"/-->
            <path d="M2,4h4v4h-4v4h4M10,4h4v8h-4v-8"/>
        </g>
    </g>
</svg>

