<svg xmlns="http://www.w3.org/2000/svg" viewBox="0 0 120 220" width="240" height="440">
    <g stroke-linecap="butt" stroke-width="2" stroke="none" fill="#fff" transform="translate(2,2)">
        <!-- SPADE #66d=rgb(102,102,221)/(240,64%,63%) or hsl(210,60%,53%) -->
        <g transform="translate(0,0)">
            <path d="M2,0h12v16h-12Z" stroke="#fff" fill="#fff"/>
            <g transform="translate(0,0)">
                <path d="M7,3h2v2h-2Z M5,5h6v2h-6 M3,7h10v4h-10Z M5,11h6v2h-6" fill="#66d"/> 
            </g>
        </g>
        <!-- HEART #d66=rgb(221,102,102)/hsl(0,64%,63%) or hsl(330,60%,53%) -->
        <g transform="translate(20,0)">
            <path d="M2,0h12v16h-12Z" stroke="#fff" fill="#fff"/>
            <g transform="translate(0,0)">
                <path d="M5,3h2v2h-2ZM9,3h2v2h-2Z M3,5h10v4h-10Z M5,9h6v2h-6 M7,11h2v2h-2" fill="#d66"/>
            </g>
        </g>
        <!-- DIAM #bb4=rgb(187,187,68)/(60,47%,50%) or hsl(60,60%,53%) -->
        <g transform="translate(40,0)">
            <path d="M2,0h12v16h-12Z" stroke="#fff" fill="#fff"/>
            <g transform="translate(0,0)">
                <path d="M7,3h2v2h-2 M5,5h6v2h-6 M3,7h10v2h-10Z M5,9h6v2h-6 M7,11h2v2h-2" fill="#bb4"/>
            </g>
        </g>
        <!-- CLUB #6b6=rgb(102,187,102)/(120,38%,57%) or hsl(120,60%,53%) -->
        <g transform="translate(60,0)">
            <path d="M2,0h12v16h-12Z" stroke="#fff" fill="#fff"/>
            <g transform="translate(0,0)">
                <path d="M5,3h6v4h-6 M3,7h10v4h-10Z M7,11h2v2h-2" fill="#6b6"/>
            </g>
        </g>
        <!-- JOKER #888=rgb(136,136,136)/(0,0%,53%) -->
        <g transform="translate(80,0)">
            <!--X path d="M2,0h12v16h-12Z" stroke="#fff" fill="#fff"/>
            <g transform="translate(0,0)">
                <path d="M3,3h2v2h-2Z M11,3h2v2h-2Z M5,5h6v6h-6M3,11h2v2h-2Z M11,11h2v2h-2Z" fill="#888"/>
            </g-->
            <path d="M2,0h12v16h-12Z" stroke="#fff" fill="#fff"/>
            <path d="M1,-1h2v2h-2ZM5,-1h2v2h-2ZM9,-1h2v2h-2ZM13,-1h2v2h-2Z M1,3h2v2h-2ZM13,3h2v2h-2Z M1,7h2v2h-2ZM13,7h2v2h-2Z M1,11h2v2h-2ZM13,11h2v2h-2Z M1,15h2v2h-2ZM5,15h2v2h-2ZM9,15h2v2h-2ZM13,15h2v2h-2Z" stroke-linecap="butt" stroke-width="2" stroke="none" fill="#888"/>
        </g>
        <!-- NONE #888=rgb(136,136,136)/(0,0%,53%) -->
            <!--Blank path d="M2,0h12v16h-12Z" stroke="#fff" fill="#fff"/>
            <path d="M1,-1h2v2h-2ZM5,-1h2v2h-2ZM9,-1h2v2h-2ZM13,-1h2v2h-2Z M1,3h2v2h-2ZM13,3h2v2h-2Z M1,7h2v2h-2ZM13,7h2v2h-2Z M1,11h2v2h-2ZM13,11h2v2h-2Z M1,15h2v2h-2ZM5,15h2v2h-2ZM9,15h2v2h-2ZM13,15h2v2h-2Z" stroke-linecap="butt" stroke-width="2" stroke="none" fill="#888"/-->
        <!-- BACK -->
        <g transform="translate(100,0)">
            <path d="M2,0h12v16h-12Z" stroke="#888" fill="#888"/>
            <path d="M3,1h2v2h-2ZM7,1h2v2h-2ZM11,1h2v2h-2Z M5,3h2v2h-2ZM9,3h2v2h-2Z M3,5h2v2h-2ZM7,5h2v2h-2ZM11,5h2v2h-2Z M5,7h2v2h-2ZM9,7h2v2h-2Z M3,9h2v2h-2ZM7,9h2v2h-2ZM11,9h2v2h-2Z M5,11h2v2h-2ZM9,11h2v2h-2Z M3,13h2v2h-2ZM7,13h2v2h-2ZM11,13h2v2h-2Z"/>
        </g>
    </g>
    <g stroke-linecap="square" stroke-width="2" stroke="#000" fill="none" transform="translate(2,2)">
        <!-- BASE -->
        <g transform="translate(0,20)">
            <!--path d="M2,0h12v16h-12Z" stroke="#888" fill="none"/-->
            <!--J path d="M8,4h2v8h-2"/>
            <path d="M5,9h2v2h-2" stroke-linecap="butt" stroke-width="2" stroke="none" fill="#000"/-->
            <!--(LargeJ) path d="M8,4h4 M12,4v6 M6,12h4"/>
            <path d="M3,9h2v2h-2" stroke-linecap="butt" stroke-width="2" stroke="none" fill="#000"/!-->
        </g>
        <!-- BLANK -->
        <g transform="translate(20,20)">
            <!--path d="M2,0h12v16h-12Z" stroke="#fff" fill="#fff"/>
            <path d="M1,-1h2v2h-2ZM5,-1h2v2h-2ZM9,-1h2v2h-2ZM13,-1h2v2h-2Z M1,3h2v2h-2ZM13,3h2v2h-2Z M1,7h2v2h-2ZM13,7h2v2h-2Z M1,11h2v2h-2ZM13,11h2v2h-2Z M1,15h2v2h-2ZM5,15h2v2h-2ZM9,15h2v2h-2ZM13,15h2v2h-2Z" stroke-linecap="butt" stroke-width="2" stroke="none" fill="#888"/-->

            <!--Q path d="M10,8v-4h-4v6h2"/>
            <path d="M9,11h2v2h-2" stroke-linecap="butt" stroke-width="2" stroke="none" fill="#000"/-->
            <!--(LargeQ) path d="M12,8v-4h-8v8h4"/>
            <path d="M7,7h2v2h-2 M9,9h2v2h-2 M11,11h2v2h-2" stroke-linecap="butt" stroke-width="2" stroke="none" fill="#000"/!-->
        </g>
        <!-- NONE -->
        <g transform="translate(40,20)">
            <!--K path d="M6,4v8 M6,8h2 M10,6v-2 M10,10v2"/!-->
            <!--(LargeK) path d="M4,4v8 M4,8h4"/>
            <path d="M9,5h2v2h-2 M9,9h2v2h-2 M11,3h2v2h-2 M11,11h2v2h-2" stroke-linecap="butt" stroke-width="2" stroke="none" fill="#000"/!-->
        </g>
        <!-- 0 1 2 -->
        <g transform="translate(60,20)">
            <!--(.) path d="M7,7h2v2h-2" stroke-linecap="butt" stroke-width="2" stroke="none" fill="#000"/-->
            <!--(?) path d="M6,4h4v2"/>
            <path d="M7,7h2v2h-2 M7,11h2v2h-2" stroke-linecap="butt" stroke-width="2" stroke="none" fill="#000"/-->
            <!--(!) path d="M8,4v4"/>
            <path d="M7,11h2v2h-2" stroke-linecap="butt" stroke-width="2" stroke="none" fill="#000"/-->
            <path d="M6,4h4v8h-4v-8"/>
        </g>
        <g transform="translate(80,20)">
            <path d="M8,4v8"/>
            <!--(A) path d="M6,6v6 M6,10h4 M10,6v6"/>
            <path d="M7,3h2v2h-2" stroke-linecap="butt" stroke-width="2" stroke="none" fill="#000"/-->
            <!--(LargeA) path d="M4,8v4 M4,10h8 M12,8v4"/>
            <path d="M5,5h2v2h-2 M7,3h2v2h-2 M9,5h2v2h-2 " stroke-linecap="butt" stroke-width="2" stroke="none" fill="#000"/!-->
        </g>
        <g transform="translate(100,20)">
            <path d="M6,4h4v4h-4v4h4"/>
        </g>
        <!-- 3 .. 8 -->
        <g transform="translate(0,40)">
            <path d="M6,4h4v4M6,8h4v4h-4"/>
        </g>
        <g transform="translate(20,40)">
            <path d="M6,4v4h4M10,4v8"/>
        </g>
        <g transform="translate(40,40)">
            <path d="M10,4h-4v4h4v4h-4"/>
        </g>
        <g transform="translate(60,40)">
            <path d="M10,4h-4v8h4v-4h-4"/>
        </g>
        <g transform="translate(80,40)">
            <path d="M6,6v-2h4v8"/>
        </g>
        <g transform="translate(100,40)">
            <path d="M10,4h-4v4h4v4h-4v-4h4v-4"/>
        </g>
        <!-- 9 .. 14 -->
        <g transform="translate(0,60)">
            <path d="M10,8v-4h-4v4h4v4h-4"/>
        </g>
        <g transform="translate(20,60)">
            <path d="M4,4v8M8,4h4v8h-4v-8"/>
        </g>
        <g transform="translate(40,60)">
            <path d="M4,4v8M12,4v8"/>
        </g>
        <g transform="translate(60,60)">
            <path d="M4,4v8M8,4h4v4h-4v4h4"/>
        </g>
        <g transform="translate(80,60)">
            <path d="M4,4v8M8,4h4v4M8,8h4v4h-4"/>
        </g>
        <g transform="translate(100,60)">
            <path d="M4,4v8M8,4v4h4M12,4v8"/>
        </g>
        <!-- 15 .. 20 -->
        <g transform="translate(0,80)">
            <path d="M4,4v8M12,4h-4v4h4v4h-4"/>
        </g>
        <g transform="translate(20,80)">
            <path d="M4,4v8M12,4h-4v8h4v-4h-4"/>
        </g>
        <g transform="translate(40,80)">
            <path d="M4,4v8M8,6v-2h4v8"/>
        </g>
        <g transform="translate(60,80)">
            <path d="M4,4v8M12,4h-4v4h4v4h-4v-4h4v-4"/>
        </g>
        <g transform="translate(80,80)">
            <path d="M4,4v8M12,8v-4h-4v4h4v4h-4"/>
        </g>
        <g transform="translate(100,80)">
            <!--path d="M2.5,4h4v4h-4v4h4M9.5,4h4v8h-4v-8"/-->
            <path d="M2,4h4v4h-4v4h4M10,4h4v8h-4v-8"/>
        </g>
        <!-- 21 .. 26 -->
        <g transform="translate(0,100)">
            <path d="M2,4h4v4h-4v4h4M12,4v8"/>
        </g>
        <g transform="translate(20,100)">
            <path d="M2,4h4v4h-4v4h4M10,4h4v4h-4v4h4"/>
        </g>
        <g transform="translate(40,100)">
            <path d="M2,4h4v4h-4v4h4M10,4h4v4M10,8h4v4h-4"/>
        </g>
        <g transform="translate(60,100)">
            <path d="M2,4h4v4h-4v4h4M10,4v4h4M14,4v8"/>
        </g>
        <g transform="translate(80,100)">
            <path d="M2,4h4v4h-4v4h4M14,4h-4v4h4v4h-4"/>
        </g>
        <g transform="translate(100,100)">
            <path d="M2,4h4v4h-4v4h4M14,4h-4v8h4v-4h-4"/>
        </g>
        <!-- 27 .. 32 -->
        <g transform="translate(0,120)">
            <path d="M2,4h4v4h-4v4h4M10,6v-2h4v8"/>
        </g>
        <g transform="translate(20,120)">
            <path d="M2,4h4v4h-4v4h4M14,4h-4v4h4v4h-4v-4h4v-4"/>
        </g>
        <g transform="translate(40,120)">
            <path d="M2,4h4v4h-4v4h4M14,8v-4h-4v4h4v4h-4"/>
        </g>
        <g transform="translate(60,120)">
            <path d="M2,4h4v4M2,8h4v4h-4M10,4h4v8h-4v-8"/>
        </g>
        <g transform="translate(80,120)">
            <path d="M2,4h4v4M2,8h4v4h-4M12,4v8"/>
        </g>
        <g transform="translate(100,120)">
            <path d="M2,4h4v4M2,8h4v4h-4M10,4h4v4h-4v4h4"/>
        </g>
        <!-- 33 .. 38 -->
        <g transform="translate(0,140)">
            <path d="M2,4h4v4M2,8h4v4h-4M10,4h4v4M10,8h4v4h-4"/>
        </g>
        <g transform="translate(20,140)">
            <path d="M2,4h4v4M2,8h4v4h-4M10,4v4h4M14,4v8"/>
        </g>
        <g transform="translate(40,140)">
            <path d="M2,4h4v4M2,8h4v4h-4M14,4h-4v4h4v4h-4"/>
        </g>
        <g transform="translate(60,140)">
            <path d="M2,4h4v4M2,8h4v4h-4M14,4h-4v8h4v-4h-4"/>
        </g>
        <g transform="translate(80,140)">
            <path d="M2,4h4v4M2,8h4v4h-4M10,6v-2h4v8"/>
        </g>
        <g transform="translate(100,140)">
            <path d="M2,4h4v4M2,8h4v4h-4M14,4h-4v4h4v4h-4v-4h4v-4"/>
        </g>
        <!-- 39 .. 44 -->
        <g transform="translate(0,160)">
            <path d="M2,4h4v4M2,8h4v4h-4M14,8v-4h-4v4h4v4h-4"/>
        </g>
        <g transform="translate(20,160)">
            <path d="M2,4v4h4M6,4v8M10,4h4v8h-4v-8"/>
        </g>
        <g transform="translate(40,160)">
            <path d="M2,4v4h4M6,4v8M12,4v8"/>
        </g>
        <g transform="translate(60,160)">
            <path d="M2,4v4h4M6,4v8M10,4h4v4h-4v4h4"/>
        </g>
        <g transform="translate(80,160)">
            <path d="M2,4v4h4M6,4v8M10,4h4v4M10,8h4v4h-4"/>
        </g>
        <g transform="translate(100,160)">
            <path d="M2,4v4h4M6,4v8M10,4v4h4M14,4v8"/>
        </g>
        <!-- 45 .. 50 -->
        <g transform="translate(0,180)">
            <path d="M2,4v4h4M6,4v8M14,4h-4v4h4v4h-4"/>
        </g>
        <g transform="translate(20,180)">
            <path d="M2,4v4h4M6,4v8M14,4h-4v8h4v-4h-4"/>
        </g>
        <g transform="translate(40,180)">
            <path d="M2,4v4h4M6,4v8M10,6v-2h4v8"/>
        </g>
        <g transform="translate(60,180)">
            <path d="M2,4v4h4M6,4v8M14,4h-4v4h4v4h-4v-4h4v-4"/>
        </g>
        <g transform="translate(80,180)">
            <path d="M2,4v4h4M6,4v8M14,8v-4h-4v4h4v4h-4"/>
        </g>
        <g transform="translate(100,180)">
            <path d="M6,4h-4v4h4v4h-4M10,4h4v8h-4v-8"/>
         </g>
        <!-- 51 .. 54 -->
        <g transform="translate(0,200)">
            <path d="M6,4h-4v4h4v4h-4M12,4v8"/>
        </g>
        <g transform="translate(20,200)">
            <path d="M6,4h-4v4h4v4h-4M10,4h4v4h-4v4h4"/>
        </g>
        <g transform="translate(40,200)">
            <path d="M6,4h-4v4h4v4h-4M10,4h4v4M10,8h4v4h-4"/>
        </g>
        <g transform="translate(60,200)">
            <path d="M6,4h-4v4h4v4h-4M10,4v4h4M14,4v8"/>
        </g>
        <!-- ? -->
        <g transform="translate(80,200)">
            <path d="M6,4h4v2"/>
            <path d="M7,7h2v2h-2 M7,11h2v2h-2" stroke-linecap="butt" stroke-width="2" stroke="none" fill="#000"/>
        </g>
        <!-- Dummy -->
        <!--g transform="translate(100,200)">
            <path d="M8,4v4"/>
            <path d="M7,11h2v2h-2" stroke-linecap="butt" stroke-width="2" stroke="none" fill="#000"/>
        </g!-->
     </g>
</svg>

